<?xml version="1.0" encoding="UTF-8"?>
<svg version="1.1" xmlns="http://www.w3.org/2000/svg" width="2305" height="1588">
<path d="M0 0 C1.39534045 0.0198572 2.79068572 0.03937792 4.18603516 0.05859375 C96.69414976 1.4037298 190.06210932 11.50853281 440 106 C440.95793457 106.55123535 441.91586914 107.1024707 442.90283203 107.67041016 C454.96891196 114.62634273 466.69611299 121.86025418 478 130 C478.6295459 130.45084961 479.2590918 130.90169922 479.90771484 131.36621094 C492.1755158 140.17402319 504.24957992 149.20700378 515.3046875 159.515625 C517.4482536 161.49143375 519.6187407 163.40758582 521.82421875 165.3125 C526.01999124 168.97222265 530.00379123 172.81149519 533.9375 176.75 C534.63697754 177.4502832 535.33645508 178.15056641 536.05712891 178.87207031 C540.64780854 183.51710905 544.91414319 188.24898264 548.9453125 193.390625 C551.1334611 196.16949052 553.4367708 198.82463588 555.75 201.5 C569.99538082 218.58116424 581.4796064 237.9530695 591 258 C591.32323242 258.66773438 591.64646484 259.33546875 591.97949219 260.0234375 C608.63170419 294.62027199 618.01698579 334.19802074 618.203125 372.625 C618.21364647 374.09066406 618.21364647 374.09066406 618.22438049 375.5859375 C618.24178759 378.72400579 618.24823331 381.86188519 618.25 385 C618.25101212 386.6102002 618.25101212 386.6102002 618.25204468 388.25292969 C618.2356377 404.68566337 617.77834334 420.76473976 615 437 C614.83371094 437.9914502 614.66742187 438.98290039 614.49609375 440.00439453 C606.1511564 487.96460391 584.97248344 533.46805748 554 571 C553.54689453 571.55316895 553.09378906 572.10633789 552.62695312 572.67626953 C540.2398687 587.70288369 526.53618549 602.20662283 511 614 C510.02546875 614.77988281 509.0509375 615.55976562 508.046875 616.36328125 C468.21768985 648.09604188 417.15657403 670.3865869 365.5 665.375 C327.20756552 661.0352185 289.92510073 641.272908 265.25 611.5 C263.82179033 609.67564458 262.40508601 607.84222389 261 606 C260.26265625 605.06671875 259.5253125 604.1334375 258.765625 603.171875 C232.89502431 569.80772101 221.34079725 529.87084812 225.30029297 487.81005859 C226.86436322 476.39134953 230.39333357 465.53232367 235 455 C235.75216797 453.26556641 235.75216797 453.26556641 236.51953125 451.49609375 C244.1206454 435.23969633 255.33635423 421.57180035 268 409 C268.51030762 408.49243164 269.02061523 407.98486328 269.54638672 407.46191406 C282.21549954 395.02254117 296.76147287 385.59937908 312.08740234 376.80175781 C336.47218761 362.78981239 365.49067235 345.0240923 374.32421875 316.59765625 C374.54722656 315.74042969 374.77023438 314.88320313 375 314 C375.23332031 313.13246094 375.46664062 312.26492188 375.70703125 311.37109375 C379.53200722 294.41781314 374.17114078 277.89663418 365.29296875 263.47265625 C356.53569335 249.89408875 345.39081339 237.33282363 333 227 C332.00742188 226.13117188 331.01484375 225.26234375 329.9921875 224.3671875 C264.37982254 166.93961566 182.7788857 133.72738401 -46 101 C-46.84598755 100.95267731 -47.6919751 100.90535461 -48.56359863 100.8565979 C-67.00274518 99.84570413 -85.44190788 99.81246542 -103.90283203 99.81469727 C-107.35926615 99.81477794 -110.81556605 99.80791253 -114.27197266 99.79418945 C-146.09561845 99.67006837 -177.81467791 100.69523339 -209.5 103.8125 C-210.37690491 103.89681274 -211.25380981 103.98112549 -212.1572876 104.06799316 C-302.82167199 112.81940496 -389.98132389 134.67512657 -572 209 C-573.27846894 209.62551717 -574.55695256 210.25100434 -575.83544922 210.87646484 C-593.21121653 219.38876475 -610.2842921 228.23802658 -627 238 C-628.44751437 238.83403193 -629.89540886 239.66740463 -631.34375 240.5 C-666.24657926 260.67277815 -701.86207827 282.88241775 -731.3828125 310.5703125 C-733.48061379 312.51782355 -735.60309773 314.37088035 -737.8125 316.1875 C-741.6373149 319.43446517 -744.77177277 323.1727853 -748 327 C-748.825 327.93714844 -749.65 328.87429688 -750.5 329.83984375 C-761.25006324 342.12396797 -770.43292344 355.52787361 -778 370 C-778.35803711 370.68336426 -778.71607422 371.36672852 -779.08496094 372.07080078 C-796.11348499 405.08664251 -808.56117723 449.10001639 -798 486 C-797.67128906 487.16402344 -797.34257813 488.32804687 -797.00390625 489.52734375 C-789.90996037 511.74194937 -772.44997322 530.1743562 -752 540.9375 C-733.00111541 549.84923777 -713.02093057 551.52959851 -693.1328125 544.74609375 C-678.83458515 539.47959235 -666.3792485 531.02519713 -653.73242188 522.70141602 C-647.88390158 518.85653781 -641.99604733 515.11004625 -636 511.5 C-626.17492991 505.56890467 -616.59538255 499.27453165 -607.00537109 492.97265625 C-604.10717963 491.07035023 -601.2049045 489.17448526 -598.30078125 487.28125 C-591.52708332 482.86447711 -584.76220303 478.43434069 -578 474 C-577.23776123 473.50028687 -576.47552246 473.00057373 -575.69018555 472.48571777 C-549.6644457 455.42053184 -523.77662632 438.1639556 -497.99932861 420.72595215 C-491.24876316 416.16184349 -484.4752098 411.63366622 -477.6875 407.125 C-444.72821106 385.21287117 -412.55982449 362.23520874 -380.9375 338.4375 C-371.71188133 331.50179576 -362.40236005 324.69404989 -353 318 C-351.80938965 317.15139404 -351.80938965 317.15139404 -350.59472656 316.28564453 C-333.52486457 304.14850545 -316.13368408 292.49572746 -298 282 C-297.35514648 281.62343262 -296.71029297 281.24686523 -296.04589844 280.85888672 C-245.01391772 251.20317025 -188.13835576 233.6596358 -129 232 C-127.78828125 231.95875 -126.5765625 231.9175 -125.328125 231.875 C-53.91633908 230.64904659 28.0468842 250.88077914 81.62109375 299.84375 C83.77510509 301.79615436 85.97027726 303.68277359 88.1875 305.5625 C92.1958001 309.06676236 95.58629399 312.92466849 99 317 C99.73863281 317.83917969 100.47726562 318.67835938 101.23828125 319.54296875 C112.64488208 332.73241948 121.92673436 347.57347533 130 363 C130.33451172 363.63099609 130.66902344 364.26199219 131.01367188 364.91210938 C161.31593667 422.85854556 160.5736468 490.33307031 141.6875 551.5 C140.15498181 556.34335998 138.58552534 561.17376001 137 566 C136.46850342 567.63122803 136.46850342 567.63122803 135.92626953 569.29541016 C123.82346702 606.19062023 108.35526735 642.31898207 89 676 C88.46487793 676.93312012 87.92975586 677.86624023 87.37841797 678.82763672 C80.6540111 690.49814385 73.68071238 701.93466531 66 713 C65.53239258 713.67869141 65.06478516 714.35738281 64.58300781 715.05664062 C57.72895029 724.98756906 50.57797951 734.61109559 43 744 C42.21753906 744.97710938 41.43507813 745.95421875 40.62890625 746.9609375 C36.34868363 752.25743481 31.93069404 757.39190364 27.3359375 762.41796875 C26.09124103 763.79379545 24.85169069 765.17504259 23.65234375 766.59057617 C18.13348353 773.07024794 12.12819769 779.05789648 6.11328125 785.07202148 C4.26271033 786.92477468 2.42029924 788.78538706 0.578125 790.64648438 C-5.52948857 796.78289197 -11.69349189 802.60508647 -18.49121094 807.98754883 C-20.93975599 809.95167465 -23.26930889 812.00067392 -25.59375 814.109375 C-30.03562442 818.0975944 -34.70451178 821.6993709 -39.5 825.25 C-40.80529663 826.22042236 -40.80529663 826.22042236 -42.13696289 827.21044922 C-44.75245358 829.14793799 -47.37450804 831.07609136 -50 833 C-50.73847168 833.54237305 -51.47694336 834.08474609 -52.23779297 834.64355469 C-69.31331671 847.12197459 -87.37631729 858.00393826 -106 868 C-107.27834717 868.69343506 -107.27834717 868.69343506 -108.58251953 869.40087891 C-165.75759537 900.33843123 -229.88153768 920.86205709 -295 925 C-296.21478027 925.08467529 -297.42956055 925.16935059 -298.68115234 925.2565918 C-309.54090051 925.98398644 -320.36765862 926.20166425 -331.25 926.1875 C-332.11850586 926.18689575 -332.98701172 926.1862915 -333.88183594 926.18566895 C-431.05033659 926.00372208 -523.64053573 894.06450118 -615.55749512 865.91033936 C-667.64979544 849.89844547 -667.64979544 849.89844547 -721 839 C-722.02689941 838.83483887 -723.05379883 838.66967773 -724.11181641 838.49951172 C-754.72320325 833.73357852 -788.48578235 833.43369406 -819 839 C-820.46058838 839.25740967 -820.46058838 839.25740967 -821.95068359 839.52001953 C-844.35867013 843.56104079 -866.15934556 849.80185891 -887 859 C-888.35061523 859.59506348 -888.35061523 859.59506348 -889.72851562 860.20214844 C-916.82879163 872.30618717 -941.79167619 888.31176967 -964 908 C-964.77682129 908.67627441 -964.77682129 908.67627441 -965.56933594 909.36621094 C-989.37036168 930.10563287 -1004.03706632 956.77108094 -1012 987 C-1012.24878906 987.9178125 -1012.49757813 988.835625 -1012.75390625 989.78125 C-1017.10273326 1009.0012407 -1014.30020335 1029.51274461 -1004.3359375 1046.453125 C-988.98110553 1070.76163591 -959.68571714 1083.13868029 -932.6640625 1089.2578125 C-930.85035156 1089.62519531 -930.85035156 1089.62519531 -929 1090 C-927.91460938 1090.22429687 -926.82921875 1090.44859375 -925.7109375 1090.6796875 C-911.32440299 1093.18617203 -896.1678737 1092.90746643 -881.75 1090.8125 C-881.04472168 1090.71171143 -880.33944336 1090.61092285 -879.61279297 1090.50708008 C-862.87537715 1087.73740519 -847.0263166 1082.05226955 -831.25 1076 C-829.15224473 1075.20361561 -827.05417248 1074.40806579 -824.95581055 1073.61328125 C-819.41340474 1071.51095442 -813.87569486 1069.39655462 -808.33953857 1067.27783203 C-805.06825783 1066.02611799 -801.79624176 1064.77634865 -798.52392578 1063.52734375 C-789.68091176 1060.15203921 -780.83854719 1056.77504387 -771.99780273 1053.39379883 C-727.13424841 1036.24112071 -682.2375834 1019.14529584 -637 1003 C-636.14931946 1002.69574097 -635.29863892 1002.39148193 -634.42218018 1002.07800293 C-565.44116896 977.4102786 -495.27011769 956.42871605 -421.3125 956.6875 C-420.22226532 956.68932281 -419.13203064 956.69114563 -418.00875854 956.69302368 C-401.16434755 956.74028625 -384.66004059 957.30866169 -368 960 C-366.90929199 960.17160645 -365.81858398 960.34321289 -364.69482422 960.52001953 C-299.45467534 971.04687268 -237.1545457 995.77702657 -189 1042 C-188.23042969 1042.72872314 -188.23042969 1042.72872314 -187.4453125 1043.47216797 C-153.15577274 1076.03200062 -131.63887199 1121.36624869 -129.71484375 1168.734375 C-128.52813782 1218.55068504 -148.34333562 1264.12378036 -181 1301 C-181.69947754 1301.79422363 -181.69947754 1301.79422363 -182.41308594 1302.60449219 C-189.89317744 1311.04975678 -197.91533349 1318.80338347 -206.24853516 1326.40136719 C-207.84308116 1327.85677382 -209.42900959 1329.32081095 -211.01171875 1330.7890625 C-217.14946506 1336.44524526 -223.49119833 1341.77762379 -230 1347 C-231.12020516 1347.91225289 -232.23997705 1348.82503803 -233.359375 1349.73828125 C-258.84826335 1370.45279484 -286.25238613 1389.28644272 -314.71923828 1405.68310547 C-317.06052494 1407.03494664 -319.38788826 1408.40881523 -321.71484375 1409.78515625 C-402.52073981 1457.18463389 -492.80898004 1489.56288848 -910.39590454 1582.8135376 C-914.56897143 1583.26266222 -918.74104656 1583.71966309 -922.91244507 1584.184021 C-948.38731511 1587.0102192 -973.37176704 1588.69284944 -999 1588 C-1001.3650714 1587.94774441 -1003.73014301 1587.89549782 -1006.09521484 1587.84326172 C-1012.5036107 1587.68338776 -1018.90747159 1587.44736 -1025.3125 1587.1875 C-1027.0072496 1587.1212291 -1027.0072496 1587.1212291 -1028.73623657 1587.05361938 C-1128.24549663 1583.13731975 -1227.18530924 1572.45527993 -1516 1427 C-1516.50450684 1426.58041016 -1517.00901367 1426.16082031 -1517.52880859 1425.72851562 C-1525.04586465 1419.47381366 -1532.3469622 1413.02933854 -1539.51171875 1406.375 C-1541.01004029 1404.99072394 -1542.518689 1403.61869273 -1544.03125 1402.25 C-1552.81806742 1394.28959547 -1561.4415045 1386.17401971 -1569.140625 1377.13671875 C-1570.99479216 1375.00598464 -1572.91190463 1372.94297492 -1574.84301758 1370.88208008 C-1580.77832645 1364.52451255 -1586.18436392 1357.86304415 -1591.47851562 1350.96728516 C-1593.1206275 1348.84402818 -1594.78489945 1346.73951244 -1596.453125 1344.63671875 C-1603.78422578 1335.36919481 -1610.67290904 1325.97904757 -1617 1316 C-1617.73984131 1314.84274414 -1617.73984131 1314.84274414 -1618.49462891 1313.66210938 C-1637.74890454 1283.4570015 -1653.69022066 1251.65242917 -1666 1218 C-1666.40734375 1216.88657227 -1666.8146875 1215.77314453 -1667.234375 1214.62597656 C-1695.9405969 1135.0081517 -1694.0364844 1044.99406822 -1658.25463867 967.76953125 C-1657.18291548 965.50640003 -1656.09499802 963.25194856 -1655 961 C-1654.66258789 960.29633301 -1654.32517578 959.59266602 -1653.97753906 958.86767578 C-1634.40155909 918.14008817 -1606.45588524 880.40783391 -1572 851 C-1571.08863281 850.19949219 -1570.17726563 849.39898438 -1569.23828125 848.57421875 C-1550.61236293 832.339081 -1529.8077383 818.8317513 -1508.08886719 807.13476562 C-1506.1946687 806.1057527 -1504.31804961 805.0517821 -1502.4453125 803.984375 C-1452.45512787 776.09869378 -1395.71160334 764.84893536 -1340.04492188 780.09960938 C-1300.37431806 791.83030108 -1265.94902097 819.56280432 -1245.79296875 855.6328125 C-1231.21351073 882.52747765 -1223.53714515 909.97329983 -1223.6875 940.6875 C-1223.68965515 941.48091797 -1223.6918103 942.27433594 -1223.69403076 943.09179688 C-1223.7456549 954.94207248 -1224.09084898 966.45298934 -1227 978 C-1227.19335938 978.78084961 -1227.38671875 979.56169922 -1227.5859375 980.36621094 C-1238.55055175 1023.15866376 -1265.66980214 1061.67267798 -1300.32421875 1088.8828125 C-1302.74859474 1090.80107788 -1305.08958854 1092.79210865 -1307.421875 1094.82055664 C-1315.44823919 1101.77284827 -1323.96455736 1108.01355501 -1332.5625 1114.23583984 C-1334.93101402 1115.95007085 -1337.29413933 1117.67149162 -1339.65625 1119.39453125 C-1348.68410026 1125.96481619 -1357.8102401 1132.37372422 -1367.03662109 1138.66162109 C-1393.9454045 1157.00456447 -1420.22076671 1175.66401498 -1444 1198 C-1444.70640625 1198.65226562 -1445.4128125 1199.30453125 -1446.140625 1199.9765625 C-1473.46728629 1226.08129991 -1494.21841748 1265.67855824 -1495.33422852 1303.73144531 C-1495.74504576 1332.25741422 -1485.99838251 1358.6684828 -1467 1380 C-1466.32710937 1380.804375 -1465.65421875 1381.60875 -1464.9609375 1382.4375 C-1453.78564851 1395.49626466 -1439.71357893 1405.7810884 -1426 1416 C-1425.02498535 1416.73114014 -1425.02498535 1416.73114014 -1424.03027344 1417.47705078 C-1354.19792337 1469.78893119 -1272.47565345 1500.47166411 -1186 1510 C-1184.40091797 1510.18006592 -1184.40091797 1510.18006592 -1182.76953125 1510.36376953 C-1121.71024662 1516.9211927 -1058.73468904 1510.19984207 -999 1497 C-997.81245117 1496.74025391 -996.62490234 1496.48050781 -995.40136719 1496.21289062 C-951.67201434 1486.46742041 -909.92076318 1470.11298866 -870 1450 C-869.10007324 1449.55060059 -868.20014648 1449.10120117 -867.27294922 1448.63818359 C-834.79513498 1432.35161777 -803.72258949 1411.48315302 -776 1388 C-774.93394525 1387.10765282 -773.86751885 1386.21574952 -772.80078125 1385.32421875 C-766.93910962 1380.41059542 -761.16391336 1375.42058885 -755.51171875 1370.265625 C-754.10899867 1369.00034095 -752.7001909 1367.74144698 -751.2696228 1366.50773621 C-746.48063987 1362.37739443 -741.92856822 1358.07557179 -737.46484375 1353.59765625 C-736.78249161 1352.91626083 -736.10013947 1352.23486542 -735.39710999 1351.53282166 C-733.96655563 1350.10294259 -732.53724233 1348.67182089 -731.10913086 1347.23950195 C-728.94300926 1345.06802289 -726.77159826 1342.90193675 -724.59960938 1340.73632812 C-723.20020013 1339.33625798 -721.80110116 1337.93587762 -720.40234375 1336.53515625 C-719.76360825 1335.89844498 -719.12487274 1335.2617337 -718.46678162 1334.60572815 C-714.11461365 1330.23122838 -710.01730441 1325.68261271 -706 1321 C-705.06155342 1319.91766041 -704.12281554 1318.83557321 -703.18359375 1317.75390625 C-690.77232946 1303.3606916 -678.83353335 1288.751443 -667.69824219 1273.34228516 C-666.0634715 1271.08754249 -664.41323826 1268.84507363 -662.7578125 1266.60546875 C-630.65484098 1224.61610143 -630.65484098 1224.61610143 -622.42578125 1174.1171875 C-626.70260339 1154.43855801 -639.55376659 1138.23195743 -656.28808594 1127.42456055 C-681.77726197 1111.66255208 -710.89585582 1111.96814573 -739.28857422 1118.36376953 C-746.19754686 1119.99603913 -753.06821995 1121.77169801 -759.9375 1123.5625 C-761.86385552 1124.05876116 -763.79021196 1124.55501876 -765.71663475 1125.05101871 C-801.64492945 1134.31703299 -837.27053709 1144.68126725 -872.81640625 1155.30859375 C-873.93266954 1155.64224347 -873.93266954 1155.64224347 -875.07148361 1155.98263359 C-882.29632164 1158.14279469 -889.51972638 1160.30747184 -896.7369976 1162.49279499 C-945.08738265 1177.12808591 -945.08738265 1177.12808591 -968.25 1181.375 C-969.44238281 1181.60832031 -970.63476562 1181.84164063 -971.86328125 1182.08203125 C-987.80701703 1185.10025717 -1003.54112648 1186.38745931 -1019.75 1186.3125 C-1020.57594666 1186.31067719 -1021.40189331 1186.30885437 -1022.25286865 1186.30697632 C-1042.53771119 1186.23191247 -1061.48720701 1183.59245157 -1081 1178 C-1081.7307373 1177.79568359 -1082.46147461 1177.59136719 -1083.21435547 1177.38085938 C-1112.23782774 1169.10158044 -1137.04883324 1153.38322628 -1159 1133 C-1159.59296875 1132.46117187 -1160.1859375 1131.92234375 -1160.796875 1131.3671875 C-1188.12651 1105.46910481 -1202.74367763 1067.50306827 -1208 1031 C-1208.103125 1030.31921387 -1208.20625 1029.63842773 -1208.3125 1028.93701172 C-1209.33333367 1021.25341545 -1209.2428309 1013.48746459 -1209.25 1005.75 C-1209.25100708 1004.99566681 -1209.25201416 1004.24133362 -1209.25305176 1003.46414185 C-1209.24190487 991.08962532 -1208.48301086 979.15270842 -1206 967 C-1205.85546387 966.26620117 -1205.71092773 965.53240234 -1205.56201172 964.77636719 C-1198.05095536 927.46230428 -1179.37084572 895.26124591 -1153.49609375 867.68359375 C-1151.36940178 865.39715027 -1149.32927439 863.07012916 -1147.3125 860.6875 C-1144.54516626 857.51091268 -1141.60500437 854.73515131 -1138.38671875 852.01953125 C-1136.59456367 850.50309234 -1134.83085355 848.95293309 -1133.08203125 847.38671875 C-1077.28120645 797.66437849 -1000.57604821 777.35807945 -928.0625 767.75 C-926.36275024 767.52328613 -926.36275024 767.52328613 -924.62866211 767.29199219 C-920.7570392 766.80909532 -916.88225027 766.38587857 -913 766 C-912.12772766 765.91279694 -911.25545532 765.82559387 -910.35675049 765.73574829 C-891.91476281 763.95862409 -873.54323669 763.63620001 -855.03533936 763.68194199 C-852.71415131 763.68758719 -850.39297059 763.69040487 -848.07177734 763.69302368 C-825.62703102 763.72981576 -803.34063169 764.14419022 -781.02679443 766.76617432 C-779.01465019 766.99830985 -777.00138736 767.21339292 -774.98681641 767.42333984 C-750.61910476 769.98819722 -726.53294224 774.44530123 -702.4145546 778.6822319 C-610.48275264 795.952296 -610.48275264 795.952296 -517.4375 802.3125 C-516.76989655 802.31034485 -516.10229309 802.3081897 -515.41445923 802.30596924 C-482.72648685 802.1401256 -448.4115807 797.27247744 -417 788 C-416.26152832 787.78408203 -415.52305664 787.56816406 -414.76220703 787.34570312 C-385.68242612 778.66892525 -359.01645296 763.91746197 -337 743 C-335.63068782 741.82666277 -334.25608213 740.65946034 -332.875 739.5 C-317.90432365 726.37792944 -306.8944746 709.08107132 -297 692 C-296.64486328 691.39961914 -296.28972656 690.79923828 -295.92382812 690.18066406 C-276.0186755 656.32638401 -261.33410043 613.23883717 -271 574 C-277.48145666 549.21223194 -293.48139544 527.03164285 -315.6015625 513.92578125 C-347.54909224 495.82218107 -380.48219092 494.89091442 -416 502 C-417.49998535 502.29753174 -417.49998535 502.29753174 -419.03027344 502.60107422 C-476.57026428 514.40005766 -529.64980333 542.8566252 -580.234375 571.7265625 C-586.60260231 575.35640793 -593.02123463 578.89351095 -599.4375 582.4375 C-609.13641858 587.80189121 -618.73325088 593.31719458 -628.28613281 598.93676758 C-635.75405458 603.31372372 -643.31473502 607.49209307 -650.9296875 611.60668945 C-657.98041148 615.42266587 -664.94915953 619.36701597 -671.8996582 623.36206055 C-679.75727127 627.87454837 -687.66011072 632.30358829 -695.57055664 636.72265625 C-701.54561074 640.06191283 -707.51111597 643.41693082 -713.46435547 646.79492188 C-802.69404279 697.40793996 -802.69404279 697.40793996 -849 706 C-849.82628906 706.16226074 -850.65257812 706.32452148 -851.50390625 706.49169922 C-878.69589505 711.64604921 -909.86808517 711.28610772 -937 706 C-937.92119629 705.82839355 -938.84239258 705.65678711 -939.79150391 705.47998047 C-987.22632214 696.49410581 -1036.02553579 675.58102512 -1067 637 C-1067.76828125 636.05769531 -1068.5365625 635.11539063 -1069.328125 634.14453125 C-1075.68563119 626.20875441 -1081.05806599 617.8787289 -1086 609 C-1086.34272949 608.39381836 -1086.68545898 607.78763672 -1087.03857422 607.16308594 C-1101.3034816 581.61053284 -1107.22484221 552.77441063 -1107.25 523.75 C-1107.25101212 522.69419739 -1107.25101212 522.69419739 -1107.25204468 521.61706543 C-1107.1710003 468.07930155 -1084.47538912 419.37849628 -1053 377 C-1052.20529297 375.92927246 -1052.20529297 375.92927246 -1051.39453125 374.83691406 C-1044.25644874 365.27001845 -1036.82339918 356.01336604 -1029 347 C-1028.38898437 346.2884375 -1027.77796875 345.576875 -1027.1484375 344.84375 C-1025.44983739 342.87949205 -1023.73004561 340.93661822 -1022 339 C-1021.26136719 338.16855469 -1020.52273438 337.33710938 -1019.76171875 336.48046875 C-1013.95429184 330.03854299 -1007.93498857 323.83069597 -1001.8125 317.6875 C-1001.06444092 316.93484863 -1000.31638184 316.18219727 -999.5456543 315.40673828 C-994.85870207 310.73270917 -990.0253058 306.30599861 -985 302 C-983.9170666 301.05050712 -982.83498885 300.10003714 -981.75390625 299.1484375 C-972.81021657 291.34791575 -963.50488189 284.10142521 -954 277 C-953.34854004 276.51112305 -952.69708008 276.02224609 -952.02587891 275.51855469 C-891.21369653 229.96763738 -819.55313317 196.03558824 -750.12446594 165.69216919 C-745.89952866 163.84323474 -741.69265774 161.96047811 -737.5 160.0390625 C-702.90378519 144.23309769 -667.19634213 130.64577116 -631.387146 117.85430908 C-628.93583459 116.97703655 -626.48656583 116.09424025 -624.03759766 115.21044922 C-535.57457741 83.33612139 -444.21022833 61.36438617 -125 5 C-123.77609558 4.8833197 -123.77609558 4.8833197 -122.52746582 4.76428223 C-81.88243959 0.9216218 -40.81887118 -0.70475644 0 0 Z M-1020.375 389.25 C-1021.53128906 389.87648438 -1021.53128906 389.87648438 -1022.7109375 390.515625 C-1027.58225823 393.67450193 -1029.62782295 396.85379534 -1031.56640625 402.296875 C-1031.79797928 402.93865189 -1032.02955231 403.58042877 -1032.2681427 404.24165344 C-1033.0450458 406.40699226 -1033.80423966 408.57806828 -1034.5625 410.75 C-1035.11040252 412.29629761 -1035.65875623 413.8424354 -1036.20751953 415.38842773 C-1038.16160842 420.91757835 -1040.08058189 426.45873919 -1042 432 C-1042.39834045 433.1464801 -1042.79668091 434.29296021 -1043.20709229 435.47418213 C-1045.84154926 443.0572059 -1048.46146928 450.64499727 -1051.06369019 458.23913574 C-1051.93799531 460.7906376 -1052.81576744 463.34090636 -1053.69631958 465.89025879 C-1054.93963205 469.4979671 -1056.17072735 473.10961334 -1057.3984375 476.72265625 C-1057.77797073 477.81798172 -1058.15750397 478.91330719 -1058.54853821 480.04182434 C-1058.88749619 481.04775131 -1059.22645416 482.05367828 -1059.57568359 483.09008789 C-1059.8762265 483.96967667 -1060.17676941 484.84926544 -1060.48641968 485.75550842 C-1061.23891184 488.14971075 -1061.23891184 488.14971075 -1060 491 C-1058.35 491.33 -1056.7 491.66 -1055 492 C-1055.15887695 492.57314941 -1055.31775391 493.14629883 -1055.48144531 493.73681641 C-1057.19704822 501.22440539 -1055.70440436 506.93668517 -1052.25 513.625 C-1051.90195313 514.3365625 -1051.55390625 515.048125 -1051.1953125 515.78125 C-1048.96624097 520.28892799 -1046.53122051 524.65587831 -1044 529 C-1043.34 529 -1042.68 529 -1042 529 C-1041.01811439 526.41767086 -1040.03940411 523.83421317 -1039.0625 521.25 C-1038.64581055 520.15558594 -1038.64581055 520.15558594 -1038.22070312 519.0390625 C-1037.95322266 518.33007812 -1037.68574219 517.62109375 -1037.41015625 516.890625 C-1037.16402588 516.24125977 -1036.91789551 515.59189453 -1036.66430664 514.92285156 C-1035.29980126 510.97325788 -1034.86268705 507.51729423 -1034.7890625 503.328125 C-1034.05532415 471.64149861 -1030.51638218 440.52674151 -1015.96240234 411.89916992 C-1012.43208903 404.93257752 -1011.15476106 399.76538052 -1013 392 C-1013.33422598 390.33351211 -1013.66780752 388.66689443 -1014 387 C-1016.64838864 387 -1018.06058783 387.97361322 -1020.375 389.25 Z M534 481 C533.70867188 481.60360352 533.41734375 482.20720703 533.1171875 482.82910156 C522.25474458 505.22862025 522.25474458 505.22862025 515 515 C514.42894531 515.77988281 513.85789062 516.55976562 513.26953125 517.36328125 C508.85467809 523.21270913 503.99846038 528.64627714 499 534 C497.87658203 535.22203125 497.87658203 535.22203125 496.73046875 536.46875 C485.42572074 548.31717577 472.06201249 556.4992524 457.64135742 564.02954102 C455.81893389 565.01520374 455.81893389 565.01520374 454 567 C468.37481452 568.92437033 479.12646341 566.42310715 491 558 C496.22534987 553.92067244 501.13895662 549.50257097 506 545 C506.5578418 544.48743652 507.11568359 543.97487305 507.69042969 543.44677734 C518.01318378 533.87028405 526.4767376 523.08255095 532 510 C532.31839844 509.28328125 532.63679688 508.5665625 532.96484375 507.828125 C536.1588299 499.29120349 535.24848564 489.96388945 535 481 C534.67 481 534.34 481 534 481 Z M-1567 898 C-1567.71671875 898.66386719 -1568.4334375 899.32773437 -1569.171875 900.01171875 C-1579.93469856 910.27945242 -1593.096329 925.82007801 -1595 941 C-1594.79384702 944.17379703 -1594.40200221 947.12393005 -1593 950 C-1588.95635985 951.34788005 -1586.54497171 950.60541417 -1582.55078125 949.31640625 C-1577.78183046 946.85524788 -1575.69401605 942.47813264 -1573 938 C-1571.55776579 935.84331335 -1570.09862709 933.69785946 -1568.625 931.5625 C-1568.24593506 931.01247314 -1567.86687012 930.46244629 -1567.47631836 929.89575195 C-1563.61189242 924.34191488 -1559.39558281 919.13839036 -1555 914 C-1554.28070312 913.14535156 -1553.56140625 912.29070312 -1552.8203125 911.41015625 C-1547.41753932 905.17101071 -1541.51047625 900.05076837 -1535 895 C-1534.15566406 894.29359375 -1533.31132813 893.5871875 -1532.44140625 892.859375 C-1513.83878688 877.84768215 -1490.24071256 868.41007972 -1466.77026367 864.50390625 C-1459.46351134 863.14721938 -1456.34115912 858.62742849 -1452 853 C-1453.5128813 848.91522049 -1456.18281331 846.02462942 -1460 844 C-1495.56272077 835.95195681 -1543.34140362 875.48282713 -1567 898 Z " fill="#000000" transform="translate(1687,0)"/>
</svg>
